<mxfile host="app.diagrams.net" modified="2022-02-17T16:52:21.328Z" agent="5.0 (Windows NT 10.0; Win64; x64) AppleWebKit/537.36 (KHTML, like Gecko) Chrome/98.0.4758.102 Safari/537.36" etag="LLbLfTJj_4Shx0tYtQD4" version="16.5.6" type="github">
  <diagram id="sQaZvpmD9Vb4IK_bRdnI" name="Page-1">
    <mxGraphModel dx="1662" dy="794" grid="1" gridSize="10" guides="1" tooltips="1" connect="1" arrows="1" fold="1" page="1" pageScale="1" pageWidth="827" pageHeight="1169" math="0" shadow="0">
      <root>
        <mxCell id="0" />
        <mxCell id="1" parent="0" />
        <mxCell id="Sy6xDuBc79MqvpF2DHL6-3" value="a" style="ellipse;whiteSpace=wrap;html=1;aspect=fixed;fontStyle=1" parent="1" vertex="1">
          <mxGeometry x="80" y="20" width="30" height="30" as="geometry" />
        </mxCell>
        <mxCell id="Sy6xDuBc79MqvpF2DHL6-5" value="σ1" style="ellipse;whiteSpace=wrap;html=1;aspect=fixed;fontStyle=1" parent="1" vertex="1">
          <mxGeometry x="80" y="60" width="30" height="30" as="geometry" />
        </mxCell>
        <mxCell id="Sy6xDuBc79MqvpF2DHL6-6" value="σ2" style="ellipse;whiteSpace=wrap;html=1;aspect=fixed;fontStyle=1" parent="1" vertex="1">
          <mxGeometry x="80" y="100" width="30" height="30" as="geometry" />
        </mxCell>
        <mxCell id="Sy6xDuBc79MqvpF2DHL6-7" value="σ3" style="ellipse;whiteSpace=wrap;html=1;aspect=fixed;fontStyle=1" parent="1" vertex="1">
          <mxGeometry x="80" y="140" width="30" height="30" as="geometry" />
        </mxCell>
        <mxCell id="Sy6xDuBc79MqvpF2DHL6-8" value="σ5" style="ellipse;whiteSpace=wrap;html=1;aspect=fixed;fontStyle=1" parent="1" vertex="1">
          <mxGeometry x="80" y="180" width="30" height="30" as="geometry" />
        </mxCell>
        <mxCell id="Sy6xDuBc79MqvpF2DHL6-9" value="σ7" style="ellipse;whiteSpace=wrap;html=1;aspect=fixed;fontStyle=1" parent="1" vertex="1">
          <mxGeometry x="80" y="220" width="30" height="30" as="geometry" />
        </mxCell>
        <mxCell id="Sy6xDuBc79MqvpF2DHL6-10" value="σ10" style="ellipse;whiteSpace=wrap;html=1;aspect=fixed;fontStyle=1" parent="1" vertex="1">
          <mxGeometry x="80" y="260" width="30" height="30" as="geometry" />
        </mxCell>
        <mxCell id="WPz7rCcN_9NmkIdG12OI-6" style="edgeStyle=orthogonalEdgeStyle;rounded=0;orthogonalLoop=1;jettySize=auto;html=1;" edge="1" parent="1" source="WPz7rCcN_9NmkIdG12OI-1" target="WPz7rCcN_9NmkIdG12OI-2">
          <mxGeometry relative="1" as="geometry" />
        </mxCell>
        <mxCell id="WPz7rCcN_9NmkIdG12OI-7" style="edgeStyle=orthogonalEdgeStyle;rounded=0;orthogonalLoop=1;jettySize=auto;html=1;entryX=0.5;entryY=0;entryDx=0;entryDy=0;" edge="1" parent="1" source="WPz7rCcN_9NmkIdG12OI-1" target="WPz7rCcN_9NmkIdG12OI-3">
          <mxGeometry relative="1" as="geometry" />
        </mxCell>
        <mxCell id="WPz7rCcN_9NmkIdG12OI-8" style="edgeStyle=orthogonalEdgeStyle;rounded=0;orthogonalLoop=1;jettySize=auto;html=1;" edge="1" parent="1" source="WPz7rCcN_9NmkIdG12OI-1" target="WPz7rCcN_9NmkIdG12OI-4">
          <mxGeometry relative="1" as="geometry" />
        </mxCell>
        <mxCell id="WPz7rCcN_9NmkIdG12OI-9" style="edgeStyle=orthogonalEdgeStyle;rounded=0;orthogonalLoop=1;jettySize=auto;html=1;" edge="1" parent="1" source="WPz7rCcN_9NmkIdG12OI-1" target="WPz7rCcN_9NmkIdG12OI-5">
          <mxGeometry relative="1" as="geometry" />
        </mxCell>
        <mxCell id="WPz7rCcN_9NmkIdG12OI-1" value="PS(1,2)" style="ellipse;whiteSpace=wrap;html=1;aspect=fixed;fontStyle=1" vertex="1" parent="1">
          <mxGeometry x="520" y="90" width="80" height="80" as="geometry" />
        </mxCell>
        <mxCell id="WPz7rCcN_9NmkIdG12OI-14" style="edgeStyle=orthogonalEdgeStyle;rounded=0;orthogonalLoop=1;jettySize=auto;html=1;entryX=0.5;entryY=0;entryDx=0;entryDy=0;" edge="1" parent="1" source="WPz7rCcN_9NmkIdG12OI-2" target="WPz7rCcN_9NmkIdG12OI-10">
          <mxGeometry relative="1" as="geometry" />
        </mxCell>
        <mxCell id="WPz7rCcN_9NmkIdG12OI-2" value="ZBP(1,1.25)" style="ellipse;whiteSpace=wrap;html=1;aspect=fixed;fontStyle=1" vertex="1" parent="1">
          <mxGeometry x="340" y="190" width="80" height="80" as="geometry" />
        </mxCell>
        <mxCell id="WPz7rCcN_9NmkIdG12OI-15" style="edgeStyle=orthogonalEdgeStyle;rounded=0;orthogonalLoop=1;jettySize=auto;html=1;entryX=0.5;entryY=0;entryDx=0;entryDy=0;" edge="1" parent="1" source="WPz7rCcN_9NmkIdG12OI-3" target="WPz7rCcN_9NmkIdG12OI-11">
          <mxGeometry relative="1" as="geometry" />
        </mxCell>
        <mxCell id="WPz7rCcN_9NmkIdG12OI-3" value="ZBP(1,1.50)" style="ellipse;whiteSpace=wrap;html=1;aspect=fixed;fontStyle=1" vertex="1" parent="1">
          <mxGeometry x="470" y="270" width="80" height="80" as="geometry" />
        </mxCell>
        <mxCell id="WPz7rCcN_9NmkIdG12OI-16" style="edgeStyle=orthogonalEdgeStyle;rounded=0;orthogonalLoop=1;jettySize=auto;html=1;entryX=0.5;entryY=0;entryDx=0;entryDy=0;" edge="1" parent="1" source="WPz7rCcN_9NmkIdG12OI-4" target="WPz7rCcN_9NmkIdG12OI-12">
          <mxGeometry relative="1" as="geometry" />
        </mxCell>
        <mxCell id="WPz7rCcN_9NmkIdG12OI-4" value="ZBP(1,1.75)" style="ellipse;whiteSpace=wrap;html=1;aspect=fixed;fontStyle=1" vertex="1" parent="1">
          <mxGeometry x="570" y="270" width="80" height="80" as="geometry" />
        </mxCell>
        <mxCell id="WPz7rCcN_9NmkIdG12OI-17" style="edgeStyle=orthogonalEdgeStyle;rounded=0;orthogonalLoop=1;jettySize=auto;html=1;entryX=0.5;entryY=0;entryDx=0;entryDy=0;" edge="1" parent="1" source="WPz7rCcN_9NmkIdG12OI-5" target="WPz7rCcN_9NmkIdG12OI-13">
          <mxGeometry relative="1" as="geometry" />
        </mxCell>
        <mxCell id="WPz7rCcN_9NmkIdG12OI-5" value="ZBP(1,2.00)" style="ellipse;whiteSpace=wrap;html=1;aspect=fixed;fontStyle=1" vertex="1" parent="1">
          <mxGeometry x="670" y="270" width="80" height="80" as="geometry" />
        </mxCell>
        <mxCell id="WPz7rCcN_9NmkIdG12OI-10" value="X(1,1.25)" style="ellipse;whiteSpace=wrap;html=1;aspect=fixed;fontStyle=1" vertex="1" parent="1">
          <mxGeometry x="340" y="410" width="80" height="80" as="geometry" />
        </mxCell>
        <mxCell id="WPz7rCcN_9NmkIdG12OI-11" value="X(1,1.25)" style="ellipse;whiteSpace=wrap;html=1;aspect=fixed;fontStyle=1" vertex="1" parent="1">
          <mxGeometry x="470" y="390" width="80" height="80" as="geometry" />
        </mxCell>
        <mxCell id="WPz7rCcN_9NmkIdG12OI-12" value="X(1,1.25)" style="ellipse;whiteSpace=wrap;html=1;aspect=fixed;fontStyle=1" vertex="1" parent="1">
          <mxGeometry x="570" y="390" width="80" height="80" as="geometry" />
        </mxCell>
        <mxCell id="WPz7rCcN_9NmkIdG12OI-13" value="X(1,1.25)" style="ellipse;whiteSpace=wrap;html=1;aspect=fixed;fontStyle=1" vertex="1" parent="1">
          <mxGeometry x="670" y="390" width="80" height="80" as="geometry" />
        </mxCell>
        <mxCell id="WPz7rCcN_9NmkIdG12OI-18" value="r*" style="ellipse;whiteSpace=wrap;html=1;aspect=fixed;fontStyle=1" vertex="1" parent="1">
          <mxGeometry x="510" y="540" width="80" height="80" as="geometry" />
        </mxCell>
        <mxCell id="WPz7rCcN_9NmkIdG12OI-24" value="" style="endArrow=classic;html=1;rounded=0;exitX=0.788;exitY=0.938;exitDx=0;exitDy=0;exitPerimeter=0;" edge="1" parent="1" source="WPz7rCcN_9NmkIdG12OI-10" target="WPz7rCcN_9NmkIdG12OI-18">
          <mxGeometry width="50" height="50" relative="1" as="geometry">
            <mxPoint x="390" y="420" as="sourcePoint" />
            <mxPoint x="440" y="370" as="targetPoint" />
          </mxGeometry>
        </mxCell>
        <mxCell id="WPz7rCcN_9NmkIdG12OI-27" value="" style="endArrow=classic;html=1;rounded=0;exitX=0.5;exitY=1;exitDx=0;exitDy=0;" edge="1" parent="1" source="WPz7rCcN_9NmkIdG12OI-12" target="WPz7rCcN_9NmkIdG12OI-18">
          <mxGeometry width="50" height="50" relative="1" as="geometry">
            <mxPoint x="413.03999999999996" y="495.03999999999996" as="sourcePoint" />
            <mxPoint x="537.7043551096926" y="586.3993364263138" as="targetPoint" />
          </mxGeometry>
        </mxCell>
        <mxCell id="WPz7rCcN_9NmkIdG12OI-28" value="" style="endArrow=classic;html=1;rounded=0;entryX=0.388;entryY=0.038;entryDx=0;entryDy=0;entryPerimeter=0;" edge="1" parent="1" source="WPz7rCcN_9NmkIdG12OI-11" target="WPz7rCcN_9NmkIdG12OI-18">
          <mxGeometry width="50" height="50" relative="1" as="geometry">
            <mxPoint x="423.03999999999996" y="505.03999999999996" as="sourcePoint" />
            <mxPoint x="547.7043551096926" y="596.3993364263138" as="targetPoint" />
          </mxGeometry>
        </mxCell>
        <mxCell id="WPz7rCcN_9NmkIdG12OI-29" value="" style="endArrow=classic;html=1;rounded=0;" edge="1" parent="1" source="WPz7rCcN_9NmkIdG12OI-13" target="WPz7rCcN_9NmkIdG12OI-18">
          <mxGeometry width="50" height="50" relative="1" as="geometry">
            <mxPoint x="433.03999999999996" y="515.04" as="sourcePoint" />
            <mxPoint x="557.7043551096926" y="606.3993364263138" as="targetPoint" />
          </mxGeometry>
        </mxCell>
        <mxCell id="WPz7rCcN_9NmkIdG12OI-30" value="d+(1,1.25)" style="ellipse;whiteSpace=wrap;html=1;aspect=fixed;fontStyle=1" vertex="1" parent="1">
          <mxGeometry x="200" y="260" width="80" height="80" as="geometry" />
        </mxCell>
        <mxCell id="WPz7rCcN_9NmkIdG12OI-31" value="d-(1,1.25)" style="ellipse;whiteSpace=wrap;html=1;aspect=fixed;fontStyle=1" vertex="1" parent="1">
          <mxGeometry x="180" y="370" width="80" height="80" as="geometry" />
        </mxCell>
        <mxCell id="WPz7rCcN_9NmkIdG12OI-32" value="" style="endArrow=classic;html=1;rounded=0;" edge="1" parent="1" source="WPz7rCcN_9NmkIdG12OI-2" target="WPz7rCcN_9NmkIdG12OI-31">
          <mxGeometry width="50" height="50" relative="1" as="geometry">
            <mxPoint x="330" y="280" as="sourcePoint" />
            <mxPoint x="526.3678381067984" y="568.346416315336" as="targetPoint" />
          </mxGeometry>
        </mxCell>
        <mxCell id="WPz7rCcN_9NmkIdG12OI-33" value="" style="endArrow=classic;html=1;rounded=0;exitX=0.038;exitY=0.713;exitDx=0;exitDy=0;exitPerimeter=0;" edge="1" parent="1" source="WPz7rCcN_9NmkIdG12OI-2" target="WPz7rCcN_9NmkIdG12OI-30">
          <mxGeometry width="50" height="50" relative="1" as="geometry">
            <mxPoint x="361.71572875253787" y="488.28427124746213" as="sourcePoint" />
            <mxPoint x="291.6905036596602" y="596.3916371866808" as="targetPoint" />
          </mxGeometry>
        </mxCell>
        <mxCell id="WPz7rCcN_9NmkIdG12OI-34" value="" style="endArrow=classic;html=1;rounded=0;entryX=0;entryY=0.5;entryDx=0;entryDy=0;" edge="1" parent="1" source="WPz7rCcN_9NmkIdG12OI-31" target="WPz7rCcN_9NmkIdG12OI-10">
          <mxGeometry width="50" height="50" relative="1" as="geometry">
            <mxPoint x="363.4626206751543" y="269.9293751783971" as="sourcePoint" />
            <mxPoint x="256.5745535531969" y="390.1036272526535" as="targetPoint" />
          </mxGeometry>
        </mxCell>
        <mxCell id="WPz7rCcN_9NmkIdG12OI-35" value="" style="endArrow=classic;html=1;rounded=0;entryX=0;entryY=0;entryDx=0;entryDy=0;" edge="1" parent="1" source="WPz7rCcN_9NmkIdG12OI-30" target="WPz7rCcN_9NmkIdG12OI-10">
          <mxGeometry width="50" height="50" relative="1" as="geometry">
            <mxPoint x="267.9473319220215" y="432.6491106406738" as="sourcePoint" />
            <mxPoint x="350" y="460" as="targetPoint" />
          </mxGeometry>
        </mxCell>
        <mxCell id="WPz7rCcN_9NmkIdG12OI-36" value="Vp(1,1.25)" style="ellipse;whiteSpace=wrap;html=1;aspect=fixed;fontStyle=1" vertex="1" parent="1">
          <mxGeometry x="260" y="500" width="80" height="80" as="geometry" />
        </mxCell>
        <mxCell id="WPz7rCcN_9NmkIdG12OI-37" value="" style="endArrow=classic;html=1;rounded=0;" edge="1" parent="1" source="WPz7rCcN_9NmkIdG12OI-31" target="WPz7rCcN_9NmkIdG12OI-36">
          <mxGeometry width="50" height="50" relative="1" as="geometry">
            <mxPoint x="363.4626206751543" y="399.9993751783971" as="sourcePoint" />
            <mxPoint x="256.5745535531969" y="520.1736272526534" as="targetPoint" />
          </mxGeometry>
        </mxCell>
        <mxCell id="WPz7rCcN_9NmkIdG12OI-38" value="" style="endArrow=classic;html=1;rounded=0;" edge="1" parent="1" source="WPz7rCcN_9NmkIdG12OI-30" target="WPz7rCcN_9NmkIdG12OI-36">
          <mxGeometry width="50" height="50" relative="1" as="geometry">
            <mxPoint x="234.9613893835683" y="459.6911150685464" as="sourcePoint" />
            <mxPoint x="245.0386106164317" y="540.3088849314536" as="targetPoint" />
          </mxGeometry>
        </mxCell>
      </root>
    </mxGraphModel>
  </diagram>
</mxfile>
